<svg width="94" height="94" viewBox="0 0 94 94" fill="none" xmlns="http://www.w3.org/2000/svg">
<path opacity="0.9" d="M0.905273 93.9229L7.47484 70.0367C3.42095 63.0449 1.2908 55.119 1.2947 46.9916C1.30638 21.5823 22.0821 0.905273 47.6088 0.905273C59.9963 0.909149 71.6245 5.71118 80.3709 14.4238C89.1135 23.1365 93.9267 34.7172 93.9229 47.0342C93.9112 72.4474 73.1354 93.1245 47.6088 93.1245C39.8593 93.1206 32.2227 91.1866 25.4584 87.5124L0.905273 93.9229ZM26.5955 79.1679C33.1222 83.0243 39.353 85.3342 47.5932 85.3381C68.809 85.3381 86.0915 68.1531 86.1032 47.0265C86.111 25.8572 68.9102 8.6955 47.6243 8.68774C26.393 8.68774 9.1221 25.8727 9.11431 46.9955C9.11042 55.619 11.6495 62.076 15.9136 68.8314L12.0233 82.97L26.5955 79.1679ZM70.9391 57.9909C70.6509 57.5103 69.8799 57.2235 68.7194 56.6461C67.5628 56.0686 61.8733 53.2819 60.8102 52.8982C59.751 52.5145 58.9799 52.3207 58.205 53.4757C57.4339 54.6268 55.2142 57.2235 54.5405 57.9909C53.8668 58.7583 53.1892 58.8552 52.0326 58.2777C50.876 57.7003 47.1454 56.4872 42.7254 52.561C39.2868 49.507 36.9619 45.7359 36.2882 44.5809C35.6145 43.4298 36.2181 42.8058 36.7945 42.2322C37.3163 41.7167 37.9511 40.8873 38.5313 40.213C39.1193 39.5463 39.3102 39.0657 39.6996 38.2945C40.0851 37.5271 39.8943 36.8527 39.6022 36.2752C39.3102 35.7016 36.997 30.0314 36.0351 27.7253C35.0927 25.4813 34.1386 25.7836 33.4299 25.7487L31.2102 25.71C30.4391 25.71 29.1852 25.9968 28.1259 27.1517C27.0667 28.3067 24.0759 31.0895 24.0759 36.7597C24.0759 42.4299 28.2233 47.9063 28.7996 48.6737C29.3799 49.4411 36.958 61.076 48.5667 66.0641C51.3278 67.2501 53.4852 67.9593 55.1636 68.4903C57.9363 69.3662 60.4597 69.2422 62.4536 68.9476C64.6772 68.6182 69.2996 66.161 70.2654 63.4712C71.2312 60.7776 71.2312 58.4715 70.9391 57.9909Z" fill="#FAF9F6"/>
</svg>
