<?xml version="1.0" encoding="UTF-8" standalone="no"?>
<!-- Created with Inkscape (http://www.inkscape.org/) -->

<svg
   width="210mm"
   height="297mm"
   viewBox="0 0 210 297"
   version="1.1"
   id="svg1"
   xml:space="preserve"
   inkscape:version="1.4.2 (f4327f4, 2025-05-13)"
   sodipodi:docname="logo.svg"
   xmlns:inkscape="http://www.inkscape.org/namespaces/inkscape"
   xmlns:sodipodi="http://sodipodi.sourceforge.net/DTD/sodipodi-0.dtd"
   xmlns="http://www.w3.org/2000/svg"
   xmlns:svg="http://www.w3.org/2000/svg"><sodipodi:namedview
     id="namedview1"
     pagecolor="#505050"
     bordercolor="#eeeeee"
     borderopacity="1"
     inkscape:showpageshadow="0"
     inkscape:pageopacity="0"
     inkscape:pagecheckerboard="0"
     inkscape:deskcolor="#505050"
     inkscape:document-units="mm"
     showguides="false"
     inkscape:zoom="0.35355339"
     inkscape:cx="601.04076"
     inkscape:cy="886.7119"
     inkscape:window-width="1920"
     inkscape:window-height="1051"
     inkscape:window-x="-9"
     inkscape:window-y="-9"
     inkscape:window-maximized="1"
     inkscape:current-layer="layer1" /><defs
     id="defs1" /><g
     inkscape:label="Camada 1"
     inkscape:groupmode="layer"
     id="layer1"><path
       style="fill:#000000"
       d="m 152.47234,146.41014 c -0.69959,-0.40728 -0.27055,-0.80638 0.68766,-0.63966 0.94481,0.16438 1.28464,-0.002 1.72967,-0.84743 0.26414,-0.50171 0.11335,-1.02259 -1.05534,-3.6455 -0.74994,-1.68308 -1.29264,-3.13102 -1.20602,-3.21764 0.40323,-0.40323 0.92224,0.29507 1.87363,2.52089 0.56752,1.32774 1.1033,2.41134 1.19063,2.40802 0.0873,-0.003 0.62171,-1.08493 1.18751,-2.40358 0.91698,-2.13707 1.51408,-2.94096 1.89874,-2.5563 0.18771,0.18771 -3.17202,7.53406 -3.72505,8.14515 -0.51637,0.57058 -1.80448,0.68837 -2.58143,0.23605 z M 50.441101,143.68423 c -0.71889,-0.76522 -0.30967,-1.1825 0.56136,-0.5724 0.85606,0.59961 1.95231,0.52062 2.44013,-0.17584 0.31093,-0.44391 0.41187,-1.28693 0.41187,-3.43958 v -2.85155 h -1.5875 c -1.25396,0 -1.5875,-0.0857 -1.5875,-0.408 0,-0.33917 0.34596,-0.39497 2.05053,-0.33073 l 2.05052,0.0773 -2.7e-4,3.4847 c -2.5e-4,3.32328 -0.03,3.51631 -0.64143,4.16719 -0.89085,0.94826 -2.82874,0.97392 -3.69771,0.0489 z m 13.76253,-0.1705 c -2.06694,-2.06694 -0.79278,-5.54176 2.03324,-5.54496 1.24884,-0.001 2.29588,0.6282 2.79546,1.68099 0.80763,1.70196 0.73756,1.7576 -2.21328,1.7576 -2.93697,0 -3.24053,0.22311 -1.9964,1.46724 0.76122,0.76122 2.33932,0.88273 3.24307,0.24972 0.82085,-0.57495 1.14252,0.0683 0.35361,0.70714 -0.41449,0.33564 -1.03607,0.48632 -2.00612,0.48632 -1.21293,0 -1.51572,-0.11018 -2.20958,-0.80405 z m 4.20292,-3.17673 c 0,-0.59939 -1.31138,-1.57547 -2.11667,-1.57547 -0.80529,0 -2.11667,0.97608 -2.11667,1.57547 0,0.16938 0.8206,0.27661 2.11667,0.27661 1.29608,0 2.11667,-0.10723 2.11667,-0.27661 z m 9.3207,0.90709 c -0.62168,-1.69851 -1.0733,-3.14524 -1.0036,-3.21494 0.39462,-0.39462 0.91835,0.4202 1.72567,2.68479 l 0.90775,2.5463 0.98072,-2.58008 c 1.28908,-3.39132 1.59268,-3.40485 2.82881,-0.12601 0.50885,1.34975 0.97684,2.40243 1.03998,2.33929 0.0631,-0.0631 0.51049,-1.16748 0.99411,-2.45408 0.57231,-1.52254 1.03617,-2.37087 1.32855,-2.42976 0.52377,-0.10547 0.54681,-0.19895 -0.87022,3.53005 -1.33958,3.52522 -1.67809,3.54611 -2.97241,0.18348 l -0.9478,-2.46237 -0.93482,2.46237 c -1.33521,3.51704 -1.63096,3.47099 -3.07674,-0.47904 z m 17.70476,2.40357 c -2.8835,-2.4263 -0.2811,-6.76517 3.25198,-5.42189 0.78259,0.29754 1.734709,1.71587 1.736149,2.58628 9.6e-4,0.57801 -0.0764,0.59531 -2.662669,0.59531 -2.63882,0 -2.662,0.006 -2.48515,0.59532 0.27898,0.93032 0.75435,1.28551 1.93183,1.44344 0.75972,0.1019 1.28673,0.0166 1.74239,-0.28194 0.88373,-0.57904 1.255029,-0.002 0.42904,0.66728 -0.92991,0.753 -2.94168,0.65924 -3.94357,-0.1838 z m 3.93079,-3.34772 c 0,-0.17253 -0.25888,-0.58924 -0.57529,-0.92605 -0.78821,-0.83901 -2.1493,-0.82224 -3.00861,0.0371 -1.03709,1.03709 -0.83511,1.20265 1.46723,1.20265 1.45558,0 2.11667,-0.098 2.11667,-0.31367 z m 9.260419,-0.48008 c 0,-4.32152 0.0207,-4.49791 0.52916,-4.49791 0.50842,0 0.52917,0.17639 0.52917,4.49791 0,4.32153 -0.0208,4.49792 -0.52917,4.49792 -0.50841,0 -0.52916,-0.17639 -0.52916,-4.49792 z m 9.78958,0 c 0,-4.32152 0.0207,-4.49791 0.52917,-4.49791 0.50841,0 0.52916,0.17639 0.52916,4.49791 0,4.32153 -0.0208,4.49792 -0.52916,4.49792 -0.50842,0 -0.52917,-0.17639 -0.52917,-4.49792 z m 10.64069,4.08498 c -1.28594,-0.9007 -1.74264,-2.88134 -0.99692,-4.32341 0.87756,-1.69702 3.15742,-2.16224 4.60929,-0.94057 0.43995,0.37019 0.8658,0.90597 0.94634,1.19062 0.0805,0.28465 0.21399,0.75567 0.29656,1.04672 0.143,0.50406 0.0238,0.52916 -2.51355,0.52916 -2.45384,0 -2.66366,0.0402 -2.66366,0.50997 0,1.25488 2.40596,2.06289 3.61693,1.21469 0.47688,-0.33402 0.60489,-0.33754 0.86524,-0.0238 0.82591,0.99515 -2.86716,1.70236 -4.16023,0.79666 z m 3.91139,-3.56784 c 0,-0.15213 -0.29224,-0.56885 -0.64943,-0.92604 -0.8305,-0.8305 -2.13186,-0.86297 -2.97153,-0.0741 -1.1032,1.0364 -0.81997,1.27679 1.5043,1.27679 1.29607,0 2.11666,-0.10723 2.11666,-0.27661 z m 9.26042,0.80578 c 0,-2.64583 0.0662,-3.175 0.39688,-3.175 0.23398,0 0.39853,0.24433 0.40092,0.59531 0.002,0.34226 0.0867,0.47157 0.19844,0.30419 0.26281,-0.39359 1.25522,-0.8995 1.76449,-0.8995 0.76247,0 0.42497,0.68358 -0.50321,1.01921 -1.07861,0.39003 -1.45994,1.38343 -1.46229,3.80944 -0.001,1.17527 -0.0918,1.52135 -0.39835,1.52135 -0.33073,0 -0.39688,-0.52917 -0.39688,-3.175 z m -4.36562,-14.56354 c -6.4165,-0.49834 -13.39287,-3.50418 -19.32983,-8.32845 -4.71249,-3.8293 -7.54444,-6.54024 -11.55201,-11.05841 C 95.767201,94.553399 74.123971,70.712309 72.654411,69.383429 c -0.91992,-0.83187 -2.07343,-1.64477 -2.56335,-1.80646 -0.68525,-0.22615 -0.89076,-0.44185 -0.89076,-0.93492 v -0.64094 h 3.42044 c 6.83212,0 11.19683,-1.05969 14.72012,-3.57386 3.81236,-2.72045 5.75759,-6.685905 6.11223,-12.460146 0.53719,-8.746482 -2.61317,-15.861751 -8.19704,-18.513522 -2.53621,-1.204438 -4.60579,-1.431248 -13.083,-1.433795 l -6.68454,-0.002 0.07,34.991151 0.07,34.991143 0.75001,1.25211 c 1.38365,2.30993 3.11604,3.35512 5.99686,3.61802 1.52806,0.13946 1.72926,0.22361 1.80468,0.75487 l 0.0849,0.59791 -12.5203,-0.0687 c -12.321,-0.0677 -12.52031,-0.0772 -12.52031,-0.59792 0,-0.46011 0.22443,-0.54797 1.71979,-0.67328 0.94589,-0.0793 2.15313,-0.33559 2.68276,-0.56961 1.4829,-0.65521 3.00993,-2.18987 3.70176,-3.72026 l 0.62694,-1.386853 v -32.67604 c 0,-31.503848 -0.0181,-32.722943 -0.50424,-33.983441 -0.6284,-1.629334 -2.33538,-3.521908 -3.72909,-4.134549 -0.58209,-0.255869 -1.86201,-0.548959 -2.84427,-0.651312 -1.50686,-0.157015 -1.78594,-0.263969 -1.78594,-0.684439 0,-0.482934 0.52564,-0.498236 16.99948,-0.494867 15.5345,0.0032 17.20498,0.04589 19.38416,0.495668 4.65379,0.960531 8.0983,2.728342 11.05319,5.672789 4.228339,4.213389 5.951819,9.511165 5.443169,16.731707 -0.74078,10.515854 -8.219719,19.170674 -17.394749,20.129654 l -1.59223,0.16642 4.02145,4.39545 c 2.2118,2.41751 4.56801,4.99077 5.23601,5.71838 0.668,0.7276 3.64468,3.99857 6.61485,7.26881 20.581689,22.661083 28.447359,30.092753 35.957599,33.973593 1.5291,0.79015 3.77429,1.7476 4.98929,2.12767 2.42655,0.75905 6.63273,1.31198 8.9044,1.17052 1.34688,-0.0839 1.45491,-0.0477 1.45457,0.48689 -4.1e-4,0.65405 -0.11761,0.70189 -3.04307,1.24205 -2.97672,0.54963 -5.87876,0.68061 -9.26041,0.41797 z m -10.29102,-19.57709 c -6.67378,-0.75707 -12.65576,-3.81595 -16.46804,-8.420921 -1.7554,-2.1204 -3.5999,-5.75844 -4.37815,-8.63533 -0.48162,-1.78033 -0.5726,-2.83137 -0.5726,-6.61458 0,-5.28278 0.40878,-7.23992 2.32104,-11.1125 4.35039,-8.8101 14.3093,-13.700786 25.64502,-12.593913 6.30606,0.615753 11.29973,2.764923 15.32631,6.596123 2.87006,2.7308 4.68552,5.71617 5.93092,9.7529 0.67521,2.18855 0.71894,2.63611 0.71894,7.35739 0,4.72128 -0.0437,5.16884 -0.71894,7.35739 -0.39541,1.28167 -1.02936,2.94855 -1.40876,3.70417 -2.3874,4.75475 -7.13639,9.023451 -12.13922,10.911511 -4.04049,1.52488 -9.76795,2.20694 -14.25652,1.69776 z m 6.87016,-2.12663 c 9.55962,-1.32963 15.90642,-8.837431 16.64694,-19.692121 0.72222,-10.58652 -4.18847,-19.31607 -12.59106,-22.38264 -3.76095,-1.37257 -8.90634,-1.62333 -12.84512,-0.626 -3.55286,0.89962 -7.38591,3.34336 -9.79505,6.24479 -1.41077,1.69905 -3.33487,5.54812 -3.91459,7.83093 -1.03215,4.06441 -1.02852,10.15475 0.008,14.16455 2.62749,10.160241 11.65881,15.967031 22.49045,14.460491 z m -3.43598,-6.358931 c -0.0673,-0.20273 -0.56077,-2.51173 -1.09652,-5.1311 -0.53576,-2.61938 -1.00858,-4.80144 -1.05072,-4.84904 -0.0421,-0.0476 -1.24816,0.6724 -2.68003,1.59999 -1.43187,0.92758 -2.77496,1.79127 -2.98465,1.91931 -0.42648,0.26041 0.19955,-0.82979 2.17348,-3.78501 0.71261,-1.06686 1.25572,-1.97585 1.20692,-2.01997 -0.0488,-0.0441 -2.29138,-0.52953 -4.98352,-1.07866 -2.69213,-0.54914 -4.98828,-1.07904 -5.10255,-1.17757 -0.11426,-0.0985 1.96933,-0.63234 4.63021,-1.18625 2.66088,-0.55391 4.98398,-1.08271 5.16245,-1.1751 0.22502,-0.1165 -0.0855,-0.8015 -1.01302,-2.23476 -0.73563,-1.13672 -2.23032,-3.529631 -1.64603,-2.798197 0.0567,0.07105 1.05734,1.304837 1.68677,2.291437 1.61389,2.52968 1.74876,2.66362 2.53142,2.514 0.64765,-0.1238 0.57653,-0.23363 -1.50883,-2.32987 -1.20368,-1.20997 -2.28214,-2.159813 -2.37719,-2.08334 -0.0951,0.07649 0.91358,1.666682 -0.6206,-0.54258 -0.24723,-0.356019 -0.33987,-0.65897 -0.22737,-0.65871 0.11249,2.7e-4 1.45293,0.83201 2.97874,1.84831 l 2.77421,1.84784 1.09135,-5.16265 c 0.60024,-2.83946 1.1473,-5.21861 1.21569,-5.28701 0.0684,-0.0684 0.5776,2.10767 1.13156,4.8357 0.55396,2.72802 1.10618,5.06934 1.22715,5.20293 0.12848,0.14188 1.00413,-0.27856 2.10571,-1.01106 1.03717,-0.68968 3.37418,-2.250204 3.43664,-2.187744 0.0625,0.0624 -2.28475,1.791804 -3.4593,2.562914 -1.43857,0.94446 -2.08831,1.52507 -1.99085,1.77905 0.0796,0.20736 0.14467,0.51332 0.14467,0.67991 0,0.16658 0.94653,-0.6381 2.1034,-1.78818 1.15686,-1.15008 2.05085,-2.17606 1.98664,-2.27995 -0.12733,-0.20603 1.18064,-1.14972 1.35368,-0.97668 0.0584,0.0584 -0.7179,1.37208 -1.72508,2.91934 -1.50425,2.3109 -1.7517,2.8365 -1.38586,2.94375 0.24494,0.0718 2.62342,0.57568 5.28551,1.11974 2.66209,0.54405 4.68615,1.07047 4.49792,1.16982 -0.18824,0.0994 -2.57255,0.63712 -5.29848,1.19506 -4.8942,1.00172 -4.95165,1.02142 -4.58981,1.57366 2.57941,3.93668 3.36838,5.20099 3.28968,5.27169 -0.0515,0.0463 -1.3428,-0.72843 -2.86955,-1.72156 -1.87009,-1.21646 -2.83186,-1.7026 -2.94738,-1.48979 -0.0943,0.17374 -0.6157,2.45902 -1.15865,5.07839 -0.54295,2.61938 -1.02953,4.80931 -1.08129,4.86652 -0.0518,0.0572 -0.14919,-0.0618 -0.21652,-0.26458 z m 1.4386,-7.09652 1.07017,-5.14042 -1.11756,-1.1387 -1.11755,-1.13871 6.59888,-0.0709 6.59888,-0.0709 -4.89479,-1.01013 c -2.69214,-0.55556 -5.15249,-1.07193 -5.46745,-1.14747 -0.43479,-0.10429 -0.86438,0.17074 -1.78445,1.14241 l -1.21181,1.27977 0.0194,6.48229 c 0.0107,3.56526 0.0682,6.36323 0.12775,6.21771 0.0596,-0.14552 0.58992,-2.57777 1.17852,-5.405 z m -3.70989,-3.74514 c 0,-0.26175 -0.12038,-0.55032 -0.26751,-0.64125 -0.27159,-0.16785 -0.72676,0.24125 -3.0007,2.69698 l -1.27067,1.37225 2.26944,-1.47603 c 1.46137,-0.95046 2.26944,-1.64548 2.26944,-1.95195 z m 8.13527,1.05097 c -1.41902,-2.22942 -1.74803,-2.52431 -2.49609,-2.23725 -0.35704,0.13701 -0.0277,0.59219 1.64744,2.27727 1.15152,1.15831 2.12089,2.10603 2.15414,2.10603 0.0333,0 -0.55421,-0.96573 -1.30549,-2.14605 z m -6.94464,-3.67479 1.03343,-1.05833 -6.33755,0.0232 -6.33755,0.0232 4.63021,1.00838 c 2.54661,0.55461 4.93346,1.02044 5.30411,1.03517 0.45913,0.0183 1.00328,-0.31051 1.70735,-1.03154 z m 1.13274,-10.61351 -0.0744,-3.23553 -0.99269,4.74171 c -0.54598,2.60794 -0.99246,4.97481 -0.99219,5.25972 2.8e-4,0.2849 0.44699,0.97564 0.99269,1.53495 l 0.99219,1.01695 0.0744,-3.04114 c 0.0409,-1.67262 0.0409,-4.49712 0,-6.27666 z m -7.08587,-18.511076 c 0,-0.463855 6.71022,-7.87593 7.14959,-7.8974 0.36844,-0.018 1.44081,1.019458 6.32762,6.121636 2.42511,2.531995 1.69932,2.557461 -2.55497,0.08965 -1.89405,-1.098695 -3.57216,-1.997627 -3.72913,-1.997627 -0.15697,0 -1.70388,0.892969 -3.43758,1.984375 -3.12122,1.964891 -3.75553,2.251914 -3.75553,1.69937 z"
       id="path1"
       sodipodi:nodetypes="sssssscsssssssscssscssssscssssssssssssssscssssssscsssssscsscssssssssssssssssssssssssscsssssssssscssscsssssssscssssscccsssccsssscsssssssssscssssssssssssssssssssssssssssscsssssssssssssssssssssscssssscssssssssssssssssssccccccssscssccssscsssssssccccssscscssscssssssssss" /></g></svg>
