<svg width="84" height="91" viewBox="0 0 84 91" fill="none" xmlns="http://www.w3.org/2000/svg">
<path d="M78.3509 90.5815C77.8246 90.2751 78.1474 89.9748 78.8683 90.1003C79.579 90.2239 79.8347 90.0987 80.1695 89.4627C80.3682 89.0853 80.2548 88.6934 79.3756 86.7202C78.8114 85.4541 78.4031 84.3648 78.4683 84.2996C78.7716 83.9963 79.1621 84.5216 79.8778 86.1961C80.3047 87.1949 80.7078 88.0101 80.7735 88.0076C80.8392 88.0054 81.2412 87.1914 81.6669 86.1994C82.3567 84.5917 82.8059 83.9869 83.0953 84.2763C83.2365 84.4175 80.709 89.9442 80.2929 90.4039C79.9045 90.8331 78.9354 90.9217 78.3509 90.5815ZM1.59307 88.5308C1.05225 87.9551 1.3601 87.6412 2.01538 88.1002C2.65939 88.5512 3.4841 88.4918 3.85108 87.9679C4.08499 87.6339 4.16093 86.9997 4.16093 85.3803V83.2351H2.96666C2.0233 83.2351 1.77239 83.1706 1.77239 82.9281C1.77239 82.673 2.03265 82.631 3.31499 82.6793L4.85759 82.7375L4.85739 85.359C4.8572 87.8591 4.83482 88.0043 4.37484 88.494C3.70466 89.2073 2.24679 89.2267 1.59307 88.5308ZM11.9466 88.4025C10.3916 86.8475 11.3502 84.2334 13.4762 84.231C14.4157 84.2303 15.2034 84.7036 15.5792 85.4957C16.1868 86.776 16.1341 86.8179 13.9142 86.8179C11.7047 86.8179 11.4763 86.9857 12.4123 87.9217C12.9849 88.4944 14.1721 88.5858 14.852 88.1095C15.4696 87.677 15.7115 88.1609 15.1181 88.6415C14.8062 88.894 14.3386 89.0074 13.6088 89.0074C12.6964 89.0074 12.4686 88.9245 11.9466 88.4025ZM15.1084 86.0127C15.1084 85.5617 14.1219 84.8274 13.5161 84.8274C12.9102 84.8274 11.9237 85.5617 11.9237 86.0127C11.9237 86.1401 12.541 86.2208 13.5161 86.2208C14.4911 86.2208 15.1084 86.1401 15.1084 86.0127ZM22.1204 86.6951C21.6527 85.4173 21.3129 84.3289 21.3654 84.2765C21.6622 83.9796 22.0562 84.5926 22.6636 86.2962L23.3465 88.2118L24.0843 86.2708C25.0541 83.7195 25.2824 83.7094 26.2124 86.176C26.5952 87.1914 26.9473 87.9834 26.9948 87.9359C27.0422 87.8884 27.3788 87.0576 27.7426 86.0897C28.1732 84.9443 28.5221 84.3061 28.7421 84.2618C29.1361 84.1824 29.1535 84.1121 28.0874 86.9174C27.0797 89.5694 26.825 89.5851 25.8513 87.0554L25.1383 85.203L24.435 87.0554C23.4305 89.7013 23.208 89.6667 22.1204 86.6951ZM35.4396 88.5033C33.2704 86.678 35.2282 83.4138 37.8861 84.4244C38.4748 84.6482 39.1911 85.7152 39.1922 86.37C39.1929 86.8049 39.1347 86.8179 37.1891 86.8179C35.2039 86.8179 35.1865 86.8224 35.3195 87.2657C35.5294 87.9656 35.887 88.2328 36.7728 88.3516C37.3443 88.4283 37.7408 88.3641 38.0836 88.1395C38.7484 87.7039 39.0278 88.138 38.4064 88.6415C37.7068 89.208 36.1933 89.1375 35.4396 88.5033ZM38.3968 85.9848C38.3968 85.855 38.202 85.5415 37.964 85.2881C37.371 84.6569 36.347 84.6695 35.7006 85.316C34.9204 86.0962 35.0723 86.2208 36.8044 86.2208C37.8994 86.2208 38.3968 86.147 38.3968 85.9848ZM45.3633 85.6236C45.3633 82.3725 45.3789 82.2398 45.7614 82.2398C46.1439 82.2398 46.1595 82.3725 46.1595 85.6236C46.1595 88.8747 46.1439 89.0074 45.7614 89.0074C45.379 89.0074 45.3633 88.8747 45.3633 85.6236ZM52.728 85.6236C52.728 82.3725 52.7436 82.2398 53.1261 82.2398C53.5086 82.2398 53.5242 82.3725 53.5242 85.6236C53.5242 88.8747 53.5086 89.0074 53.1261 89.0074C52.7436 89.0074 52.728 88.8747 52.728 85.6236ZM60.733 88.6967C59.7656 88.0191 59.422 86.5291 59.983 85.4442C60.6432 84.1676 62.3583 83.8176 63.4506 84.7366C63.7815 85.0151 64.1019 85.4182 64.1625 85.6324C64.2231 85.8465 64.3235 86.2008 64.3856 86.4198C64.4932 86.799 64.4035 86.8179 62.4947 86.8179C60.6486 86.8179 60.4908 86.8481 60.4908 87.2015C60.4908 88.1456 62.3008 88.7534 63.2118 88.1153C63.5706 87.8641 63.6669 87.8614 63.8627 88.0974C64.4841 88.8461 61.7058 89.3781 60.733 88.6967ZM63.6755 86.0127C63.6755 85.8982 63.4557 85.5847 63.187 85.316C62.5622 84.6912 61.5832 84.6668 60.9515 85.2602C60.1215 86.0399 60.3346 86.2208 62.0832 86.2208C63.0582 86.2208 63.6755 86.1401 63.6755 86.0127ZM70.6421 86.6188C70.6421 84.6284 70.6919 84.2303 70.9407 84.2303C71.1167 84.2303 71.2405 84.4141 71.2423 84.6782C71.2438 84.9356 71.3075 85.0329 71.3916 84.907C71.5893 84.6109 72.3359 84.2303 72.719 84.2303C73.2926 84.2303 73.0387 84.7445 72.3404 84.997C71.529 85.2905 71.2421 86.0378 71.2404 87.8629C71.2396 88.747 71.1713 89.0074 70.9407 89.0074C70.6919 89.0074 70.6421 88.6093 70.6421 86.6188ZM67.3579 75.6627C62.5308 75.2878 57.2824 73.0265 52.8161 69.3972C49.2709 66.5165 47.1404 64.477 44.1255 61.078C35.6918 51.5698 19.4096 33.6342 18.3041 32.6344C17.612 32.0086 16.7443 31.3971 16.3757 31.2754C15.8602 31.1053 15.7056 30.943 15.7056 30.5721V30.0899H18.2788C23.4186 30.0899 26.7021 29.2927 29.3527 27.4013C32.2207 25.3547 33.6841 22.3715 33.9509 18.0276C34.355 11.4476 31.985 6.09482 27.7843 4.0999C25.8763 3.1938 24.3193 3.02317 17.942 3.02126L12.9132 3.01975L12.9659 29.3435L13.0185 55.6673L13.5828 56.6092C14.6237 58.347 15.9269 59.1333 18.0942 59.3311C19.2437 59.436 19.3951 59.4993 19.4518 59.899L19.5157 60.3488L10.0967 60.2971C0.827647 60.2461 0.677707 60.239 0.677707 59.8473C0.677707 59.5011 0.846547 59.435 1.9715 59.3408C2.68309 59.2811 3.5913 59.0883 3.98974 58.9122C5.10532 58.4193 6.2541 57.2648 6.77456 56.1135L7.24621 55.0702V30.4881C7.24621 6.78778 7.23259 5.87066 6.86687 4.92239C6.39413 3.69664 5.10997 2.27286 4.06148 1.81197C3.62358 1.61949 2.6607 1.39899 1.92175 1.32199C0.788139 1.20387 0.578186 1.12341 0.578186 0.807092C0.578186 0.443782 0.973621 0.43227 13.3669 0.434805C25.0534 0.437212 26.3101 0.469328 27.9495 0.807695C31.4506 1.5303 34.0419 2.86022 36.2648 5.07532C39.4458 8.24505 40.7423 12.2306 40.3597 17.6625C39.8024 25.5736 34.176 32.0846 27.2737 32.806L26.0758 32.9312L29.1012 36.2379C30.7651 38.0566 32.5377 39.9925 33.0402 40.5399C33.5427 41.0872 35.7821 43.548 38.0165 46.0082C53.5001 63.056 59.4174 68.6469 65.0674 71.5664C66.2177 72.1609 67.9067 72.8811 68.8208 73.1671C70.6463 73.7381 73.8106 74.1541 75.5195 74.0476C76.5328 73.9845 76.6141 74.0118 76.6138 74.4139C76.6135 74.906 76.5253 74.942 74.3245 75.3483C72.0851 75.7618 69.9019 75.8603 67.3579 75.6627ZM59.616 60.9349C54.5953 60.3654 50.0951 58.0642 47.2271 54.5999C45.9065 53.0047 44.5189 50.2678 43.9334 48.1035C43.5711 46.7642 43.5027 45.9735 43.5027 43.1274C43.5027 39.1532 43.8102 37.6808 45.2488 34.7675C48.5215 28.1397 56.0136 24.4604 64.5415 25.2931C69.2855 25.7564 73.0422 27.3732 76.0714 30.2554C78.2305 32.3097 79.5963 34.5556 80.5332 37.5925C81.0412 39.2389 81.0741 39.5756 81.0741 43.1274C81.0741 46.6792 81.0412 47.0159 80.5332 48.6624C80.2357 49.6265 79.7588 50.8805 79.4734 51.449C77.6774 55.026 74.1047 58.2373 70.3411 59.6577C67.3015 60.8049 62.9927 61.318 59.616 60.9349ZM64.7844 59.3351C71.9761 58.3348 76.7507 52.6867 77.3078 44.5207C77.8511 36.5565 74.1568 29.9893 67.8356 27.6823C65.0062 26.6497 61.1354 26.4611 58.1722 27.2114C55.4994 27.8882 52.6158 29.7266 50.8034 31.9093C49.7421 33.1875 48.2946 36.0832 47.8585 37.8005C47.082 40.8582 47.0848 45.4399 47.8645 48.4565C49.8412 56.1 56.6358 60.4684 64.7844 59.3351ZM62.1995 54.5513C62.1489 54.3987 61.7776 52.6617 61.3746 50.6911C60.9715 48.7206 60.6158 47.079 60.5841 47.0432C60.5525 47.0074 59.6451 47.5491 58.5679 48.2469C57.4907 48.9447 56.4803 49.5945 56.3226 49.6908C56.0018 49.8867 56.4727 49.0665 57.9577 46.8433C58.4938 46.0407 58.9024 45.3569 58.8657 45.3237C58.8289 45.2905 57.1419 44.9253 55.1166 44.5122C53.0913 44.0991 51.3639 43.7005 51.2779 43.6263C51.192 43.5522 52.7595 43.1506 54.7612 42.7339C56.763 42.3172 58.5107 41.9194 58.6449 41.8499C58.8142 41.7623 58.5806 41.2469 57.8828 40.1687C57.3294 39.3135 56.205 37.5134 56.6445 38.0636C56.6872 38.1171 57.44 39.0452 57.9135 39.7875C59.1276 41.6905 59.2291 41.7913 59.8179 41.6787C60.3051 41.5856 60.2516 41.503 58.6828 39.926C57.7773 39.0157 56.9659 38.3012 56.8944 38.3587C56.8229 38.4162 57.5817 39.6125 56.4275 37.9505C56.2416 37.6827 56.1719 37.4548 56.2565 37.455C56.3411 37.4552 57.3495 38.0809 58.4974 38.8454L60.5844 40.2356L61.4054 36.3517C61.857 34.2156 62.2686 32.4258 62.32 32.3743C62.3715 32.3229 62.7545 33.9599 63.1713 36.0122C63.588 38.0645 64.0035 39.8259 64.0945 39.9264C64.1911 40.0331 64.8499 39.7168 65.6786 39.1657C66.4588 38.6469 68.217 37.4729 68.264 37.5199C68.311 37.5668 66.5452 38.8679 65.6615 39.448C64.5793 40.1585 64.0905 40.5953 64.1638 40.7864C64.2237 40.9424 64.2727 41.1725 64.2727 41.2978C64.2727 41.4232 64.9847 40.8178 65.855 39.9526C66.7253 39.0874 67.3979 38.3156 67.3496 38.2374C67.2538 38.0824 68.2378 37.3725 68.368 37.5026C68.4119 37.5466 67.8279 38.5349 67.0702 39.6989C65.9385 41.4373 65.7524 41.8328 66.0276 41.9134C66.2119 41.9675 68.0012 42.3465 70.0039 42.7558C72.0066 43.1651 73.5293 43.5611 73.3877 43.6359C73.246 43.7107 71.4523 44.1152 69.4016 44.5349C65.7197 45.2885 65.6765 45.3033 65.9487 45.7188C67.8892 48.6803 68.4827 49.6315 68.4235 49.6847C68.3848 49.7195 67.4134 49.1367 66.2648 48.3895C64.8579 47.4744 64.1344 47.1087 64.0475 47.2688C63.9765 47.3995 63.5843 49.1187 63.1758 51.0892C62.7674 53.0598 62.4013 54.7073 62.3624 54.7503C62.3234 54.7933 62.2501 54.7038 62.1995 54.5513ZM63.2817 49.2126L64.0868 45.3454L63.2461 44.4888L62.4054 43.6321L67.3697 43.5788L72.334 43.5255L68.6517 42.7655C66.6264 42.3476 64.7755 41.9591 64.5385 41.9023C64.2114 41.8238 63.8882 42.0308 63.1961 42.7617L62.2844 43.7245L62.299 48.6011C62.3071 51.2833 62.3503 53.3882 62.3951 53.2787C62.44 53.1692 62.8389 51.3395 63.2817 49.2126ZM60.4908 46.3951C60.4908 46.1982 60.4002 45.9811 60.2895 45.9127C60.0852 45.7864 59.7428 46.0942 58.0321 47.9416L57.0762 48.974L58.7835 47.8635C59.8829 47.1485 60.4908 46.6256 60.4908 46.3951ZM66.6109 47.1857C65.5434 45.5085 65.2959 45.2867 64.7331 45.5027C64.4645 45.6057 64.7123 45.9482 65.9725 47.2158C66.8388 48.0872 67.5681 48.8002 67.5931 48.8002C67.6181 48.8002 67.1761 48.0737 66.6109 47.1857ZM61.3865 44.4212L62.164 43.625L57.3962 43.6425L52.6285 43.6599L56.1118 44.4185C58.0276 44.8358 59.8232 45.1862 60.1021 45.1973C60.4475 45.2111 60.8568 44.9636 61.3865 44.4212ZM62.2387 36.4367L62.1827 34.0026L61.4359 37.5698C61.0252 39.5317 60.6893 41.3123 60.6895 41.5267C60.6897 41.741 61.0257 42.2606 61.4363 42.6814L62.1827 43.4464L62.2387 41.1586C62.2694 39.9003 62.2694 37.7754 62.2387 36.4367ZM56.908 22.5108C56.908 22.1619 61.9561 16.5858 62.2866 16.5696C62.5638 16.5561 63.3705 17.3366 67.0469 21.1749C68.8713 23.0797 68.3253 23.0989 65.1248 21.2424C63.6999 20.4158 62.4374 19.7396 62.3193 19.7396C62.2012 19.7396 61.0375 20.4113 59.7333 21.2324C57.3852 22.7106 56.908 22.9265 56.908 22.5108Z" fill="#FAF9F6"/>
</svg>
