<svg width="83" height="91" viewBox="0 0 83 91" fill="none" xmlns="http://www.w3.org/2000/svg">
<path d="M77.8298 90.4345C77.3038 90.1281 77.6264 89.8279 78.3468 89.9533C79.0572 90.0769 79.3127 89.9518 79.6473 89.3158C79.8459 88.9383 79.7325 88.5465 78.8538 86.5733C78.29 85.3071 77.882 84.2178 77.9471 84.1526C78.2503 83.8493 78.6405 84.3746 79.3558 86.0491C79.7825 87.0479 80.1853 87.8631 80.251 87.8606C80.3166 87.8584 80.7184 87.0444 81.1438 86.0524C81.8332 84.4447 82.2822 83.84 82.5714 84.1293C82.7125 84.2706 80.1865 89.7972 79.7707 90.2569C79.3824 90.6862 78.414 90.7748 77.8298 90.4345ZM1.11671 88.3838C0.576202 87.8081 0.883877 87.4942 1.53877 87.9532C2.1824 88.4043 3.00663 88.3448 3.3734 87.8209C3.60718 87.4869 3.68307 86.8527 3.68307 85.2333V83.0881H2.48949C1.54669 83.0881 1.29592 83.0236 1.29592 82.7812C1.29592 82.526 1.55603 82.484 2.83763 82.5323L4.37933 82.5905L4.37913 85.212C4.37894 87.7121 4.35657 87.8573 3.89686 88.347C3.22707 89.0604 1.77005 89.0797 1.11671 88.3838ZM11.4642 88.2555C9.91014 86.7006 10.8681 84.0865 12.9929 84.0841C13.9318 84.0833 14.7191 84.5567 15.0947 85.3487C15.7019 86.6291 15.6492 86.6709 13.4306 86.6709C11.2224 86.6709 10.9942 86.8388 11.9296 87.7747C12.5019 88.3474 13.6884 88.4388 14.3679 87.9626C14.9851 87.53 15.227 88.014 14.6338 88.4946C14.3222 88.7471 13.8548 88.8604 13.1255 88.8604C12.2135 88.8604 11.9859 88.7775 11.4642 88.2555ZM14.6242 85.8657C14.6242 85.4148 13.6382 84.6805 13.0328 84.6805C12.4273 84.6805 11.4413 85.4148 11.4413 85.8657C11.4413 85.9931 12.0583 86.0738 13.0328 86.0738C14.0072 86.0738 14.6242 85.9931 14.6242 85.8657ZM21.632 86.5481C21.1646 85.2703 20.8251 84.1819 20.8775 84.1295C21.1742 83.8326 21.5679 84.4456 22.1749 86.1493L22.8574 88.0648L23.5948 86.1238C24.564 83.5726 24.7923 83.5624 25.7217 86.029C26.1042 87.0445 26.4561 87.8364 26.5036 87.7889C26.551 87.7414 26.8874 86.9106 27.251 85.9427C27.6813 84.7973 28.0301 84.1591 28.2499 84.1148C28.6437 84.0354 28.661 83.9651 27.5956 86.7704C26.5884 89.4225 26.3339 89.4382 25.3608 86.9085L24.6482 85.056L23.9453 86.9085C22.9414 89.5543 22.7191 89.5197 21.632 86.5481ZM34.9435 88.3563C32.7755 86.531 34.7322 83.2669 37.3886 84.2774C37.977 84.5013 38.6928 85.5683 38.6939 86.2231C38.6946 86.6579 38.6364 86.6709 36.6919 86.6709C34.7079 86.6709 34.6905 86.6754 34.8235 87.1188C35.0332 87.8186 35.3906 88.0859 36.2759 88.2047C36.8471 88.2813 37.2434 88.2172 37.586 87.9926C38.2504 87.557 38.5296 87.9911 37.9085 88.4946C37.2094 89.061 35.6968 88.9905 34.9435 88.3563ZM37.8989 85.8378C37.8989 85.708 37.7043 85.3945 37.4664 85.1411C36.8738 84.5099 35.8504 84.5226 35.2043 85.1691C34.4246 85.9492 34.5765 86.0738 36.3075 86.0738C37.4019 86.0738 37.8989 86.0001 37.8989 85.8378ZM44.8615 85.4766C44.8615 82.2256 44.877 82.0929 45.2593 82.0929C45.6416 82.0929 45.6572 82.2256 45.6572 85.4766C45.6572 88.7277 45.6415 88.8604 45.2593 88.8604C44.8771 88.8604 44.8615 88.7277 44.8615 85.4766ZM52.2218 85.4766C52.2218 82.2256 52.2374 82.0929 52.6197 82.0929C53.002 82.0929 53.0176 82.2256 53.0176 85.4766C53.0176 88.7277 53.0019 88.8604 52.6197 88.8604C52.2374 88.8604 52.2218 88.7277 52.2218 85.4766ZM60.2221 88.5498C59.2553 87.8722 58.9119 86.3821 59.4726 85.2973C60.1324 84.0206 61.8465 83.6706 62.9381 84.5897C63.2689 84.8682 63.5891 85.2712 63.6496 85.4854C63.7102 85.6995 63.8105 86.0539 63.8726 86.2728C63.9801 86.652 63.8905 86.6709 61.9828 86.6709C60.1378 86.6709 59.9801 86.7012 59.9801 87.0546C59.9801 87.9986 61.789 88.6065 62.6995 87.9684C63.0581 87.7171 63.1543 87.7144 63.35 87.9505C63.971 88.6991 61.1943 89.2311 60.2221 88.5498ZM63.1629 85.8657C63.1629 85.7512 62.9432 85.4377 62.6747 85.169C62.0502 84.5442 61.0718 84.5198 60.4405 85.1133C59.611 85.893 59.824 86.0738 61.5715 86.0738C62.546 86.0738 63.1629 85.9931 63.1629 85.8657ZM70.1255 86.4719C70.1255 84.4814 70.1752 84.0833 70.4239 84.0833C70.5998 84.0833 70.7235 84.2671 70.7253 84.5312C70.7268 84.7887 70.7905 84.8859 70.8745 84.76C71.0721 84.4639 71.8183 84.0833 72.2012 84.0833C72.7744 84.0833 72.5207 84.5976 71.8228 84.8501C71.0119 85.1435 70.7251 85.8908 70.7234 87.7159C70.7226 88.6001 70.6544 88.8604 70.4239 88.8604C70.1752 88.8604 70.1255 88.4623 70.1255 86.4719ZM66.8431 75.5157C62.0188 75.1408 56.7736 72.8796 52.3098 69.2503C48.7667 66.3695 46.6375 64.3301 43.6244 60.9311C35.1955 51.4228 18.9229 33.4872 17.818 32.4875C17.1263 31.8617 16.2591 31.2501 15.8907 31.1285C15.3755 30.9583 15.221 30.7961 15.221 30.4251V29.943H17.7927C22.9295 29.943 26.2111 29.1458 28.8601 27.2543C31.7265 25.2078 33.189 22.2246 33.4557 17.8806C33.8596 11.3006 31.4909 5.94785 27.2926 3.95292C25.3858 3.04683 23.8297 2.8762 17.4561 2.87428L12.4302 2.87278L12.4829 29.1965L12.5355 55.5203L13.0994 56.4623C14.1397 58.2 15.4422 58.9863 17.6082 59.1841C18.7571 59.289 18.9083 59.3523 18.9651 59.752L19.0289 60.2018L9.61539 60.1501C0.351733 60.0992 0.20188 60.092 0.20188 59.7003C0.20188 59.3542 0.370621 59.2881 1.49492 59.1938C2.2061 59.1341 3.11377 58.9413 3.51198 58.7653C4.62691 58.2724 5.77502 57.1178 6.29518 55.9665L6.76655 54.9232V30.3411C6.76655 6.64081 6.75294 5.72369 6.38743 4.77541C5.91497 3.54967 4.63156 2.12589 3.58368 1.665C3.14603 1.47251 2.18371 1.25202 1.44519 1.17502C0.312247 1.0569 0.102417 0.976438 0.102417 0.66012C0.102417 0.29681 0.497622 0.285298 12.8836 0.287832C24.5634 0.29024 25.8193 0.322355 27.4578 0.660722C30.9568 1.38333 33.5466 2.71325 35.7682 4.92835C38.9473 8.09807 40.2432 12.0836 39.8607 17.5156C39.3038 25.4266 33.6806 31.9376 26.7823 32.6591L25.5852 32.7843L28.6088 36.091C30.2717 37.9096 32.0432 39.8455 32.5455 40.3929C33.0477 40.9403 35.2858 43.401 37.5189 45.8612C52.9935 62.9091 58.9073 68.4999 64.554 71.4195C65.7036 72.0139 67.3917 72.7342 68.3052 73.0201C70.1296 73.5911 73.2921 74.0071 75.0001 73.9007C76.0127 73.8376 76.094 73.8648 76.0937 74.267C76.0934 74.759 76.0053 74.795 73.8057 75.2014C71.5677 75.6148 69.3857 75.7133 66.8431 75.5157ZM59.1057 60.7879C54.088 60.2184 49.5904 57.9172 46.7241 54.4529C45.4043 52.8577 44.0175 50.1208 43.4324 47.9566C43.0702 46.6172 43.0018 45.8265 43.0018 42.9804C43.0018 39.0062 43.3092 37.5339 44.7469 34.6205C48.0178 27.9927 55.5055 24.3135 64.0284 25.1462C68.7697 25.6094 72.5242 27.2262 75.5516 30.1084C77.7095 32.1628 79.0744 34.4087 80.0108 37.4455C80.5185 39.0919 80.5514 39.4286 80.5514 42.9804C80.5514 46.5322 80.5185 46.8689 80.0108 48.5154C79.7135 49.4796 79.2369 50.7336 78.9516 51.302C77.1566 54.879 73.5861 58.0903 69.8246 59.5107C66.7868 60.6579 62.4805 61.171 59.1057 60.7879ZM64.2711 59.1881C71.4586 58.1878 76.2305 52.5397 76.7873 44.3737C77.3303 36.4095 73.6382 29.8423 67.3206 27.5353C64.4929 26.5028 60.6243 26.3141 57.6629 27.0644C54.9916 27.7412 52.1097 29.5796 50.2984 31.7623C49.2377 33.0405 47.791 35.9362 47.3552 37.6535C46.5791 40.7112 46.5819 45.2929 47.3612 48.3095C49.3367 55.953 56.1273 60.3215 64.2711 59.1881ZM61.6878 54.4043C61.6372 54.2518 61.2662 52.5147 60.8633 50.5442C60.4605 48.5736 60.105 46.932 60.0734 46.8962C60.0417 46.8604 59.1349 47.4021 58.0583 48.0999C56.9818 48.7977 55.972 49.4475 55.8143 49.5438C55.4937 49.7397 55.9643 48.9196 57.4485 46.6963C57.9842 45.8937 58.3926 45.2099 58.3559 45.1767C58.3192 45.1436 56.6331 44.7784 54.609 44.3653C52.5849 43.9521 50.8585 43.5535 50.7726 43.4794C50.6867 43.4053 52.2533 43.0037 54.2539 42.587C56.2545 42.1703 58.0011 41.7724 58.1353 41.7029C58.3045 41.6153 58.071 41.1 57.3736 40.0217C56.8206 39.1666 55.6968 37.3664 56.1361 37.9167C56.1787 37.9701 56.931 38.8983 57.4043 39.6405C58.6177 41.5436 58.7191 41.6443 59.3075 41.5318C59.7945 41.4386 59.741 41.356 58.1731 39.779C57.2681 38.8688 56.4573 38.1542 56.3858 38.2117C56.3143 38.2693 57.0727 39.4656 55.9192 37.8035C55.7333 37.5357 55.6637 37.3078 55.7482 37.308C55.8328 37.3082 56.8407 37.9339 57.9878 38.6985L60.0737 40.0886L60.8942 36.2048C61.3455 34.0686 61.7568 32.2788 61.8082 32.2273C61.8597 32.1759 62.2425 33.8129 62.659 35.8652C63.0755 37.9175 63.4907 39.6789 63.5816 39.7794C63.6782 39.8861 64.3366 39.5698 65.1648 39.0188C65.9446 38.4999 67.7018 37.3259 67.7487 37.3729C67.7957 37.4199 66.0309 38.7209 65.1478 39.301C64.0662 40.0115 63.5777 40.4483 63.651 40.6394C63.7108 40.7954 63.7597 41.0256 63.7597 41.1509C63.7597 41.2762 64.4714 40.6708 65.3412 39.8056C66.211 38.9404 66.8831 38.1686 66.8349 38.0904C66.7391 37.9354 67.7225 37.2255 67.8526 37.3557C67.8966 37.3996 67.3129 38.3879 66.5556 39.5519C65.4246 41.2904 65.2386 41.6858 65.5137 41.7665C65.6978 41.8205 67.4861 42.1996 69.4876 42.6088C71.4891 43.0181 73.0109 43.4142 72.8694 43.4889C72.7279 43.5637 70.9352 43.9682 68.8857 44.3879C65.206 45.1415 65.1628 45.1563 65.4348 45.5718C67.3742 48.5334 67.9674 49.4845 67.9082 49.5377C67.8695 49.5725 66.8986 48.9897 65.7507 48.2426C64.3447 47.3274 63.6215 46.9617 63.5347 47.1218C63.4638 47.2525 63.0718 48.9717 62.6635 50.9422C62.2553 52.9128 61.8895 54.5603 61.8506 54.6033C61.8116 54.6464 61.7384 54.5568 61.6878 54.4043ZM62.7694 49.0656L63.574 45.1985L62.7338 44.3418L61.8935 43.4852L66.855 43.4318L71.8164 43.3785L68.1362 42.6186C66.1121 42.2006 64.2622 41.8122 64.0254 41.7553C63.6985 41.6769 63.3755 41.8838 62.6838 42.6148L61.7727 43.5775L61.7873 48.4541C61.7953 51.1363 61.8385 53.2412 61.8833 53.1317C61.9281 53.0222 62.3269 51.1925 62.7694 49.0656ZM59.9801 46.2481C59.9801 46.0512 59.8896 45.8341 59.7789 45.7657C59.5748 45.6394 59.2325 45.9472 57.5228 47.7946L56.5675 48.827L58.2738 47.7166C59.3725 47.0015 59.9801 46.4787 59.9801 46.2481ZM66.0967 47.0388C65.0298 45.3616 64.7824 45.1397 64.2199 45.3557C63.9515 45.4588 64.1991 45.8012 65.4586 47.0689C66.3244 47.9403 67.0532 48.6532 67.0782 48.6532C67.1032 48.6532 66.6615 47.9267 66.0967 47.0388ZM60.8753 44.2742L61.6523 43.4781L56.8873 43.4955L52.1224 43.513L55.6036 44.2716C57.5183 44.6888 59.3129 45.0392 59.5916 45.0503C59.9368 45.0641 60.3459 44.8167 60.8753 44.2742ZM61.7269 36.2897L61.671 33.8556L60.9246 37.4228C60.5141 39.3848 60.1784 41.1653 60.1786 41.3797C60.1788 41.594 60.5147 42.1137 60.925 42.5344L61.671 43.2995L61.7269 41.0116C61.7577 39.7533 61.7577 37.6285 61.7269 36.2897ZM56.3993 22.3639C56.3993 22.0149 61.4445 16.4388 61.7748 16.4227C62.0518 16.4091 62.8581 17.1896 66.5323 21.028C68.3557 22.9328 67.81 22.9519 64.6113 21.0954C63.1873 20.2689 61.9256 19.5926 61.8076 19.5926C61.6895 19.5926 60.5265 20.2644 59.223 21.0854C56.8763 22.5636 56.3993 22.7795 56.3993 22.3639Z" fill="#1C2C3C"/>
</svg>
